<?xml version="1.0" encoding="utf-8"?>
<!-- Generator: Adobe Illustrator 27.7.0, SVG Export Plug-In . SVG Version: 6.00 Build 0)  -->
<svg version="1.1" id="Layer_1" xmlns="http://www.w3.org/2000/svg" xmlns:xlink="http://www.w3.org/1999/xlink" x="0px" y="0px"
	 viewBox="0 0 16 16" style="enable-background:new 0 0 16 16;" xml:space="preserve">
<style type="text/css">
	.st0{fill:#E4DFC3;}
	.st1{clip-path:url(#SVGID_00000181076352793140232480000000926176763709397943_);}
	.st2{clip-path:url(#SVGID_00000053532190403359430210000002291698540983735734_);}
</style>
<rect x="0" class="st0" width="16" height="16"/>
<g id="favicon_00000168823617487074430420000001926741642420566165_">
	<g>
		<defs>
			<rect id="SVGID_1_" x="1.5" y="2" width="12.7" height="11.5"/>
		</defs>
		<clipPath id="SVGID_00000138572698430042011550000002986274146164260015_">
			<use xlink:href="#SVGID_1_"  style="overflow:visible;"/>
		</clipPath>
		<g style="clip-path:url(#SVGID_00000138572698430042011550000002986274146164260015_);">
			<defs>
				<rect id="SVGID_00000132069380777157325860000000919119243696790205_" x="1.5" y="2" width="12.7" height="11.5"/>
			</defs>
			<clipPath id="SVGID_00000119119164655369230010000002942357552381354686_">
				<use xlink:href="#SVGID_00000132069380777157325860000000919119243696790205_"  style="overflow:visible;"/>
			</clipPath>
			<path style="clip-path:url(#SVGID_00000119119164655369230010000002942357552381354686_);" d="M1.5,6.7L3.1,6h0.2v5.3
				c0,0.4,0,0.6,0,0.7c0,0.1,0.1,0.2,0.2,0.2c0.1,0,0.3,0.1,0.6,0.1v0.2H1.6v-0.2c0.3,0,0.5,0,0.6-0.1c0.1,0,0.1-0.1,0.2-0.2
				c0-0.1,0.1-0.3,0.1-0.7V7.9c0-0.5,0-0.8,0-0.9c0-0.1-0.1-0.2-0.1-0.2c-0.1,0-0.1-0.1-0.2-0.1c-0.1,0-0.3,0-0.5,0.1L1.5,6.7z"/>
			<path style="clip-path:url(#SVGID_00000119119164655369230010000002942357552381354686_);" d="M7,9c0.5-0.6,1-0.9,1.4-0.9
				c0.2,0,0.4,0.1,0.6,0.2c0.2,0.1,0.3,0.3,0.4,0.6C9.5,9,9.5,9.3,9.5,9.7v1.8c0,0.3,0,0.5,0.1,0.6c0,0.1,0.1,0.1,0.2,0.2
				c0.1,0,0.2,0.1,0.4,0.1v0.2H8v-0.2h0.1c0.2,0,0.3,0,0.4-0.1c0.1-0.1,0.1-0.2,0.2-0.3c0,0,0-0.2,0-0.4V9.7c0-0.4-0.1-0.7-0.2-0.8
				C8.5,8.7,8.3,8.6,8.1,8.6C7.7,8.6,7.3,8.8,7,9.2v2.3C7,11.8,7,12,7,12c0,0.1,0.1,0.2,0.2,0.2c0.1,0,0.2,0.1,0.5,0.1v0.2H5.5v-0.2
				h0.1c0.2,0,0.4-0.1,0.4-0.2c0.1-0.1,0.1-0.3,0.1-0.6V9.9c0-0.5,0-0.8,0-0.9c0-0.1-0.1-0.2-0.1-0.2c0,0-0.1-0.1-0.2-0.1
				c-0.1,0-0.2,0-0.3,0.1L5.5,8.6l1.3-0.5H7V9z"/>
			<path style="clip-path:url(#SVGID_00000119119164655369230010000002942357552381354686_);" d="M11.7,6.7L13.3,6h0.2v5.3
				c0,0.4,0,0.6,0,0.7c0,0.1,0.1,0.2,0.2,0.2c0.1,0,0.3,0.1,0.6,0.1v0.2h-2.4v-0.2c0.3,0,0.5,0,0.6-0.1c0.1,0,0.1-0.1,0.2-0.2
				c0-0.1,0.1-0.3,0.1-0.7V7.9c0-0.5,0-0.8,0-0.9c0-0.1-0.1-0.2-0.1-0.2c-0.1,0-0.1-0.1-0.2-0.1c-0.1,0-0.3,0-0.5,0.1L11.7,6.7z"/>
			<polygon style="clip-path:url(#SVGID_00000119119164655369230010000002942357552381354686_);" points="1.6,5.5 7.8,2.2 12.5,5.3 
				13.4,4.8 7.8,2 1.5,5.3 			"/>
		</g>
	</g>
</g>
</svg>
