<?xml version="1.0" encoding="utf-8"?>
<!-- Generator: Adobe Illustrator 27.7.0, SVG Export Plug-In . SVG Version: 6.00 Build 0)  -->
<svg version="1.1" id="Layer_1" xmlns="http://www.w3.org/2000/svg" xmlns:xlink="http://www.w3.org/1999/xlink" x="0px" y="0px"
	 viewBox="0 0 16 16" style="enable-background:new 0 0 16 16;" xml:space="preserve">
<path d="M3.55,4.38c0,0.01,0,0.03,0,0.07v7.05c0,0.3,0.08,0.49,0.24,0.57c0.16,0.08,0.46,0.13,0.9,0.15v0.16H1.39v-0.18
	c0.47-0.02,0.78-0.09,0.93-0.19s0.22-0.33,0.22-0.69V5.91c0-0.19-0.02-0.33-0.07-0.43s-0.15-0.15-0.3-0.15
	c-0.1,0-0.23,0.03-0.4,0.08S1.45,5.54,1.31,5.6V5.44l2.15-1.1h0.07C3.54,4.36,3.55,4.37,3.55,4.38z"/>
<path d="M5.19,12.23c0.28-0.04,0.47-0.1,0.58-0.21s0.17-0.33,0.17-0.69V8.35c0-0.25-0.02-0.42-0.07-0.52C5.8,7.68,5.65,7.6,5.42,7.6
	c-0.04,0-0.07,0-0.11,0.01S5.22,7.62,5.17,7.63V7.42c0.16-0.05,0.54-0.17,1.14-0.36l0.55-0.18c0.03,0,0.04,0.01,0.05,0.03
	s0.01,0.05,0.01,0.08v0.86c0.36-0.34,0.64-0.57,0.84-0.69c0.3-0.19,0.62-0.29,0.95-0.29c0.26,0,0.51,0.08,0.72,0.23
	c0.42,0.3,0.63,0.83,0.63,1.59v2.74c0,0.28,0.06,0.48,0.17,0.61c0.11,0.12,0.3,0.19,0.56,0.19v0.16h-2.5v-0.16
	c0.29-0.04,0.48-0.12,0.6-0.24s0.17-0.38,0.17-0.78v-2.5C9.06,8.37,9,8.1,8.87,7.88S8.52,7.54,8.19,7.54c-0.23,0-0.46,0.08-0.7,0.23
	c-0.13,0.09-0.3,0.24-0.51,0.45v3.28c0,0.28,0.06,0.47,0.19,0.57s0.32,0.15,0.59,0.16v0.16H5.19V12.23z"/>
<path d="M13.55,4.38c0,0.01,0,0.03,0,0.07v7.05c0,0.3,0.08,0.49,0.24,0.57s0.46,0.13,0.9,0.15v0.16h-3.31v-0.18
	c0.47-0.02,0.78-0.09,0.93-0.19s0.22-0.33,0.22-0.69V5.91c0-0.19-0.02-0.33-0.07-0.43s-0.15-0.15-0.3-0.15
	c-0.1,0-0.23,0.03-0.4,0.08s-0.31,0.12-0.45,0.18V5.44l2.15-1.1h0.07C13.54,4.36,13.55,4.37,13.55,4.38z"/>
<polygon points="1.31,4.34 7.98,1.13 12.26,4.34 13.48,3.69 7.98,0.59 1.31,4.16 "/>
<g>
</g>
<g>
</g>
<g>
</g>
<g>
</g>
<g>
</g>
<g>
</g>
</svg>
