<svg version="1.1" id="Layer_1" xmlns="http://www.w3.org/2000/svg" xmlns:xlink="http://www.w3.org/1999/xlink" x="0" y="0" viewBox="0 0 16 16" style="enable-background:new 0 0 16 16" xml:space="preserve"><style>.st1{clip-path:url(#SVGID_00000181076352793140232480000000926176763709397943_)}.st2{clip-path:url(#SVGID_00000053532190403359430210000002291698540983735734_)}</style><path style="fill:#e4dfc3" d="M0 0h16v16H0z"/><g id="favicon_00000168823617487074430420000001926741642420566165_"><defs><path id="SVGID_1_" d="M1.5 2h12.7v11.5H1.5z"/></defs><clipPath id="SVGID_00000138572698430042011550000002986274146164260015_"><use xlink:href="#SVGID_1_" style="overflow:visible"/></clipPath><g style="clip-path:url(#SVGID_00000138572698430042011550000002986274146164260015_)"><defs><path id="SVGID_00000132069380777157325860000000919119243696790205_" d="M1.5 2h12.7v11.5H1.5z"/></defs><clipPath id="SVGID_00000119119164655369230010000002942357552381354686_"><use xlink:href="#SVGID_00000132069380777157325860000000919119243696790205_" style="overflow:visible"/></clipPath><path style="clip-path:url(#SVGID_00000119119164655369230010000002942357552381354686_)" d="M1.5 6.7 3.1 6h.2v6c0 .1.1.2.2.2s.3.1.6.1v.2H1.6v-.2c.3 0 .5 0 .6-.1.1 0 .1-.1.2-.2 0-.1.1-.3.1-.7V7c0-.1-.1-.2-.1-.2-.1 0-.1-.1-.2-.1s-.3 0-.5.1l-.2-.1zM7 9c.5-.6 1-.9 1.4-.9.2 0 .4.1.6.2.2.1.3.3.4.6.1.1.1.4.1.8v1.8c0 .3 0 .5.1.6 0 .1.1.1.2.2.1 0 .2.1.4.1v.2H8v-.2h.1c.2 0 .3 0 .4-.1.1-.1.1-.2.2-.3V9.7c0-.4-.1-.7-.2-.8 0-.2-.2-.3-.4-.3-.4 0-.8.2-1.1.6V12c0 .1.1.2.2.2s.2.1.5.1v.2H5.5v-.2h.1c.2 0 .4-.1.4-.2.1-.1.1-.3.1-.6V9c0-.1-.1-.2-.1-.2s-.1-.1-.2-.1-.2 0-.3.1v-.2l1.3-.5H7V9zM11.7 6.7l1.6-.7h.2v6c0 .1.1.2.2.2s.3.1.6.1v.2h-2.4v-.2c.3 0 .5 0 .6-.1.1 0 .1-.1.2-.2 0-.1.1-.3.1-.7V7c0-.1-.1-.2-.1-.2-.1 0-.1-.1-.2-.1s-.3 0-.5.1l-.3-.1zM1.6 5.5l6.2-3.3 4.7 3.1.9-.5L7.8 2 1.5 5.3z"/></g></g></svg>