<svg id="Layer_2" data-name="Layer 2" xmlns="http://www.w3.org/2000/svg" viewBox="0 0 131.69 69.82"><defs><clipPath id="clippath"><path class="cls-1" d="M0 0h131.69v69.82H0z"/></clipPath><clipPath id="clippath-1"><path class="cls-1" d="M0 0h131.69v69.82H0z"/></clipPath><style>.cls-1{fill:none}.cls-4{fill:#231f20}</style></defs><g id="Layer_1-2" data-name="Layer 1"><g style="clip-path:url(#clippath);fill:none" id="final"><g style="clip-path:url(#clippath-1);fill:none"><path class="cls-4" d="m25.35 55.94-2.69 7.39H0v-1.05c6.67-6.08 11.36-11.05 14.08-14.9 2.72-3.85 4.08-7.37 4.08-10.56 0-2.44-.75-4.44-2.24-6-1.49-1.57-3.28-2.35-5.35-2.35-1.89 0-3.58.55-5.08 1.66-1.5 1.1-2.61 2.72-3.33 4.86H1.11c.47-3.49 1.69-6.17 3.64-8.04 1.95-1.87 4.39-2.8 7.32-2.8 3.11 0 5.72 1 7.8 3 2.09 2 3.13 4.36 3.13 7.08 0 1.94-.45 3.89-1.36 5.83-1.4 3.06-3.66 6.3-6.8 9.71-4.7 5.14-7.64 8.23-8.81 9.29h10.02c2.04 0 3.47-.07 4.29-.23.82-.15 1.56-.46 2.22-.92.66-.46 1.24-1.12 1.73-1.97h1.05ZM27.55 28.7l9.35-4.56h.93v32.43c0 2.15.09 3.49.27 4.02.18.53.55.93 1.12 1.22.57.28 1.72.44 3.46.48v1.05H28.24v-1.05c1.81-.04 2.98-.19 3.51-.47.53-.27.9-.64 1.11-1.1.21-.46.31-1.84.31-4.15V35.84c0-2.79-.09-4.59-.28-5.38-.13-.6-.37-1.05-.72-1.33s-.77-.42-1.26-.42c-.7 0-1.67.29-2.92.88l-.42-.88ZM60.51 42.12c3.04-3.66 5.94-5.49 8.69-5.49 1.42 0 2.63.35 3.65 1.06 1.02.71 1.83 1.87 2.43 3.5.42 1.13.62 2.87.62 5.21v11.07c0 1.64.13 2.76.4 3.34.21.47.54.84 1.01 1.1.46.27 1.32.4 2.56.4v1.02H67.04v-1.02h.54c1.21 0 2.05-.18 2.54-.55.48-.37.82-.91 1-1.63.08-.28.11-1.17.11-2.66V46.85c0-2.36-.31-4.07-.92-5.14-.61-1.07-1.65-1.6-3.1-1.6-2.25 0-4.48 1.23-6.71 3.68v13.68c0 1.75.1 2.84.31 3.26.26.55.63.95 1.09 1.2.46.26 1.4.38 2.82.38v1.02H51.89v-1.02h.57c1.32 0 2.21-.33 2.68-1 .46-.67.69-1.95.69-3.84v-9.63c0-3.12-.07-5.01-.21-5.69-.14-.68-.36-1.14-.65-1.39-.29-.25-.68-.37-1.18-.37-.53 0-1.16.14-1.9.43l-.42-1.02 7.82-3.17h1.22v5.49ZM89.55 28.7l9.35-4.56h.93v32.43c0 2.15.09 3.49.27 4.02.18.53.55.93 1.12 1.22.57.28 1.72.44 3.46.48v1.05H90.24v-1.05c1.81-.04 2.98-.19 3.51-.47.53-.27.9-.64 1.1-1.1.21-.46.31-1.84.31-4.15V35.84c0-2.79-.09-4.59-.28-5.38-.13-.6-.37-1.05-.72-1.33s-.77-.42-1.26-.42c-.7 0-1.67.29-2.92.88l-.43-.88ZM106.85 44.36c0-4.38.66-8.15 1.98-11.31 1.32-3.16 3.08-5.52 5.27-7.07 1.7-1.23 3.46-1.84 5.27-1.84 2.94 0 5.59 1.5 7.93 4.5 2.93 3.72 4.39 8.76 4.39 15.12 0 4.46-.64 8.24-1.93 11.36-1.28 3.11-2.92 5.38-4.91 6.78-1.99 1.41-3.91 2.11-5.76 2.11-3.66 0-6.71-2.16-9.15-6.48-2.06-3.64-3.09-8.03-3.09-13.17m5.55.71c0 5.29.65 9.6 1.95 12.94 1.08 2.81 2.68 4.22 4.81 4.22 1.02 0 2.08-.46 3.17-1.37 1.09-.92 1.93-2.45 2.49-4.6.87-3.25 1.3-7.83 1.3-13.74 0-4.38-.45-8.03-1.36-10.96-.68-2.17-1.56-3.71-2.63-4.62-.77-.62-1.71-.93-2.8-.93-1.28 0-2.43.58-3.43 1.73-1.36 1.57-2.29 4.03-2.78 7.39-.49 3.36-.74 6.67-.74 9.94M28.08 20.86l37.6-19.73 28.4 18.54 5.27-2.54L65.68 0 27.55 19.95l.53.91z"/></g></g></g></svg>