<svg width="160" height="36" fill="none" xmlns="http://www.w3.org/2000/svg"><rect width="160" height="36" rx="8" fill="#25D366"/><path fill-rule="evenodd" clip-rule="evenodd" d="M21.788 8.79a9.48 9.48 0 0 1 6.5 2.635 9.405 9.405 0 0 1 2.908 6.487 9.477 9.477 0 0 1-2.357 6.606 9.414 9.414 0 0 1-6.835 3.207 9.417 9.417 0 0 1-.27.004c-1.422 0-2.83-.321-4.105-.935l-4.957 1.103a.073.073 0 0 1-.086-.081l.838-5.012a9.489 9.489 0 0 1-1.157-4.273 9.408 9.408 0 0 1 2.58-6.773 9.413 9.413 0 0 1 6.895-2.969h.046Zm-.052 1.643c-.076 0-.152 0-.228.003-4.313.124-7.722 3.734-7.598 8.047a7.834 7.834 0 0 0 1.073 3.74l.144.244-.62 3.401 3.365-.794.254.132a7.83 7.83 0 0 0 3.831.876c4.314-.123 7.723-3.734 7.599-8.047-.122-4.238-3.608-7.602-7.82-7.602Zm-3.274 3.252c.158.004.317.009.455.02.17.011.356.025.522.426.197.477.623 1.668.678 1.788.056.12.092.261.007.417-.084.157-.126.255-.25.39-.122.135-.258.302-.368.405-.123.115-.25.24-.12.482.132.243.585 1.036 1.272 1.688.883.838 1.59 1.114 1.872 1.245.101.048.186.07.26.07a.351.351 0 0 0 .259-.12c.148-.15.593-.67.78-.91.099-.124.188-.168.284-.168.077 0 .16.028.255.066.215.086 1.366.697 1.6.824.234.126.39.19.447.291.056.101.042.577-.173 1.126-.216.55-1.202 1.055-1.639 1.082-.128.007-.254.025-.418.025-.395 0-1.013-.104-2.415-.708-2.386-1.027-3.835-3.552-3.949-3.714-.114-.163-.93-1.32-.894-2.49.035-1.17.667-1.726.892-1.957a.878.878 0 0 1 .623-.279h.02Z" fill="#fff"/><path d="M46.974 17.312h1.824a3.453 3.453 0 0 0-.408-1.32 3.103 3.103 0 0 0-.828-.96 3.47 3.47 0 0 0-1.128-.6 4.26 4.26 0 0 0-1.332-.204c-.656 0-1.248.116-1.776.348a3.8 3.8 0 0 0-1.32.96 4.27 4.27 0 0 0-.828 1.44 5.301 5.301 0 0 0-.288 1.776c0 .624.096 1.208.288 1.752.192.536.468 1.004.828 1.404.36.4.8.716 1.32.948.528.224 1.12.336 1.776.336a4.22 4.22 0 0 0 1.452-.24c.44-.16.824-.392 1.152-.696.328-.304.592-.672.792-1.104.2-.432.324-.916.372-1.452h-1.824c-.072.576-.272 1.04-.6 1.392-.32.352-.768.528-1.344.528-.424 0-.784-.08-1.08-.24a2.116 2.116 0 0 1-.72-.66 2.945 2.945 0 0 1-.408-.912 4.912 4.912 0 0 1 0-2.148c.088-.352.224-.664.408-.936.184-.28.424-.5.72-.66.296-.168.656-.252 1.08-.252.232 0 .452.04.66.12a1.822 1.822 0 0 1 .996.792c.112.176.184.372.216.588Zm3.002-2.88V23h1.704v-3.252c0-.632.104-1.084.312-1.356.208-.28.544-.42 1.008-.42.408 0 .692.128.852.384.16.248.24.628.24 1.14V23h1.704v-3.816c0-.384-.036-.732-.108-1.044a1.893 1.893 0 0 0-.348-.804 1.594 1.594 0 0 0-.696-.516c-.288-.128-.66-.192-1.116-.192-.32 0-.648.084-.984.252-.336.16-.612.42-.828.78h-.036v-3.228h-1.704Zm7.041 4.272c.024-.4.124-.732.3-.996s.4-.476.672-.636c.272-.16.576-.272.912-.336a5.025 5.025 0 0 1 1.032-.108c.312 0 .628.024.948.072.32.04.612.124.876.252s.48.308.648.54c.168.224.252.524.252.9v3.228c0 .28.016.548.048.804s.088.448.168.576h-1.728a3.908 3.908 0 0 1-.084-.288 4.139 4.139 0 0 1-.036-.312 2.22 2.22 0 0 1-.96.588 3.853 3.853 0 0 1-1.128.168c-.296 0-.572-.036-.828-.108a1.896 1.896 0 0 1-.672-.336 1.622 1.622 0 0 1-.456-.576 2.012 2.012 0 0 1-.156-.828c0-.352.06-.64.18-.864.128-.232.288-.416.48-.552.2-.136.424-.236.672-.3.256-.072.512-.128.768-.168.256-.04.508-.072.756-.096.248-.024.468-.06.66-.108s.344-.116.456-.204c.112-.096.164-.232.156-.408 0-.184-.032-.328-.096-.432a.564.564 0 0 0-.24-.252.783.783 0 0 0-.348-.12 2.283 2.283 0 0 0-.42-.036c-.336 0-.6.072-.792.216-.192.144-.304.384-.336.72h-1.704Zm3.936 1.26a.83.83 0 0 1-.276.156 4.852 4.852 0 0 1-.732.144 7.164 7.164 0 0 0-.408.06 3.367 3.367 0 0 0-.384.096c-.12.04-.228.096-.324.168a.739.739 0 0 0-.216.252.83.83 0 0 0-.084.396c0 .152.028.28.084.384a.692.692 0 0 0 .228.252c.096.056.208.096.336.12.128.024.26.036.396.036.336 0 .596-.056.78-.168.184-.112.32-.244.408-.396.088-.16.14-.32.156-.48.024-.16.036-.288.036-.384v-.636Zm5.187-3.168v-1.86h-1.704v1.86h-1.032v1.14h1.032v3.66c0 .312.052.564.156.756.104.192.244.34.42.444.184.104.392.172.624.204.24.04.492.06.756.06.168 0 .34-.004.516-.012s.336-.024.48-.048v-1.32c-.08.016-.164.028-.252.036a3.05 3.05 0 0 1-.276.012c-.288 0-.48-.048-.576-.144-.096-.096-.144-.288-.144-.576v-3.072h1.248v-1.14H66.14Zm6.91 3.108c0-.248.025-.492.073-.732.048-.24.128-.452.24-.636.12-.184.276-.332.468-.444.192-.12.432-.18.72-.18s.528.06.72.18c.2.112.356.26.468.444.12.184.204.396.252.636a3.723 3.723 0 0 1 0 1.464 1.925 1.925 0 0 1-.252.636 1.25 1.25 0 0 1-.468.444c-.192.112-.432.168-.72.168s-.528-.056-.72-.168a1.382 1.382 0 0 1-.468-.444 2.095 2.095 0 0 1-.24-.636 3.723 3.723 0 0 1-.072-.732Zm-1.703 0c0 .496.076.944.228 1.344.152.4.368.744.648 1.032.28.28.616.496 1.008.648.392.152.832.228 1.32.228.488 0 .928-.076 1.32-.228.4-.152.74-.368 1.02-.648.28-.288.496-.632.648-1.032.152-.4.228-.848.228-1.344a3.76 3.76 0 0 0-.228-1.344 2.836 2.836 0 0 0-.648-1.032 2.776 2.776 0 0 0-1.02-.66 3.465 3.465 0 0 0-1.32-.24c-.488 0-.928.08-1.32.24a2.836 2.836 0 0 0-1.656 1.692 3.76 3.76 0 0 0-.228 1.344Zm7.528-3.108V23h1.704v-3.252c0-.632.104-1.084.312-1.356.208-.28.544-.42 1.008-.42.408 0 .692.128.852.384.16.248.24.628.24 1.14V23h1.704v-3.816c0-.384-.036-.732-.108-1.044a1.893 1.893 0 0 0-.348-.804 1.594 1.594 0 0 0-.696-.516c-.288-.128-.66-.192-1.116-.192-.36 0-.712.084-1.056.252-.344.16-.624.42-.84.78h-.036v-.864h-1.62ZM97.668 23l2.304-8.568h-1.848l-1.404 5.904h-.024l-1.464-5.904h-1.764l-1.488 5.832h-.024L90.6 14.432h-1.884L90.984 23h1.908l1.428-5.832h.024L95.796 23h1.872Zm2.992-8.568V23h1.704v-3.252c0-.632.104-1.084.312-1.356.208-.28.544-.42 1.008-.42.408 0 .692.128.852.384.16.248.24.628.24 1.14V23h1.704v-3.816c0-.384-.036-.732-.108-1.044a1.893 1.893 0 0 0-.348-.804 1.594 1.594 0 0 0-.696-.516c-.288-.128-.66-.192-1.116-.192-.32 0-.648.084-.984.252-.336.16-.612.42-.828.78h-.036v-3.228h-1.704Zm7.041 4.272c.024-.4.124-.732.3-.996s.4-.476.672-.636c.272-.16.576-.272.912-.336a5.025 5.025 0 0 1 1.032-.108c.312 0 .628.024.948.072.32.04.612.124.876.252s.48.308.648.54c.168.224.252.524.252.9v3.228c0 .28.016.548.048.804s.088.448.168.576h-1.728a3.908 3.908 0 0 1-.084-.288 4.139 4.139 0 0 1-.036-.312 2.22 2.22 0 0 1-.96.588 3.853 3.853 0 0 1-1.128.168c-.296 0-.572-.036-.828-.108a1.896 1.896 0 0 1-.672-.336 1.622 1.622 0 0 1-.456-.576 2.012 2.012 0 0 1-.156-.828c0-.352.06-.64.18-.864.128-.232.288-.416.48-.552.2-.136.424-.236.672-.3.256-.072.512-.128.768-.168.256-.04.508-.072.756-.096.248-.024.468-.06.66-.108s.344-.116.456-.204c.112-.096.164-.232.156-.408 0-.184-.032-.328-.096-.432a.564.564 0 0 0-.24-.252.783.783 0 0 0-.348-.12 2.283 2.283 0 0 0-.42-.036c-.336 0-.6.072-.792.216-.192.144-.304.384-.336.72h-1.704Zm3.936 1.26a.83.83 0 0 1-.276.156 4.852 4.852 0 0 1-.732.144 7.164 7.164 0 0 0-.408.06 3.367 3.367 0 0 0-.384.096c-.12.04-.228.096-.324.168a.739.739 0 0 0-.216.252.83.83 0 0 0-.084.396c0 .152.028.28.084.384a.692.692 0 0 0 .228.252c.096.056.208.096.336.12.128.024.26.036.396.036.336 0 .596-.056.78-.168.184-.112.32-.244.408-.396.088-.16.14-.32.156-.48.024-.16.036-.288.036-.384v-.636Zm5.187-3.168v-1.86h-1.704v1.86h-1.032v1.14h1.032v3.66c0 .312.052.564.156.756.104.192.244.34.42.444.184.104.392.172.624.204.24.04.492.06.756.06.168 0 .34-.004.516-.012s.336-.024.48-.048v-1.32c-.08.016-.164.028-.252.036a3.05 3.05 0 0 1-.276.012c-.288 0-.48-.048-.576-.144-.096-.096-.144-.288-.144-.576v-3.072h1.248v-1.14h-1.248Zm3.378 4.188h-1.62c.016.416.108.764.276 1.044.176.272.396.492.66.66.272.168.58.288.924.36a5.14 5.14 0 0 0 2.088 0c.344-.064.648-.18.912-.348.264-.168.476-.388.636-.66.168-.28.252-.624.252-1.032 0-.288-.056-.528-.168-.72-.112-.2-.26-.364-.444-.492a2.267 2.267 0 0 0-.636-.324 6.804 6.804 0 0 0-.72-.204c-.24-.056-.476-.108-.708-.156-.232-.048-.44-.1-.624-.156a1.385 1.385 0 0 1-.432-.24.467.467 0 0 1-.168-.372c0-.128.032-.228.096-.3.064-.08.14-.14.228-.18.096-.04.2-.064.312-.072.112-.016.216-.024.312-.024.304 0 .568.06.792.18.224.112.348.332.372.66h1.62c-.032-.384-.132-.7-.3-.948a1.864 1.864 0 0 0-.612-.612 2.586 2.586 0 0 0-.852-.324 5.005 5.005 0 0 0-1.956 0 2.53 2.53 0 0 0-.864.312 1.724 1.724 0 0 0-.624.6c-.152.256-.228.584-.228.984 0 .272.056.504.168.696.112.184.26.34.444.468.184.12.392.22.624.3.24.072.484.136.732.192.608.128 1.08.256 1.416.384.344.128.516.32.516.576 0 .152-.036.28-.108.384a.894.894 0 0 1-.276.24 1.464 1.464 0 0 1-.732.168 2.02 2.02 0 0 1-.492-.06c-.152-.04-.288-.1-.408-.18a1.16 1.16 0 0 1-.3-.324 1.012 1.012 0 0 1-.108-.48Zm7.466-1.296 1.116-3.144h.024l1.08 3.144h-2.22Zm.18-5.256L124.608 23h1.896l.672-1.908h3.204l.648 1.908h1.956l-3.204-8.568h-1.932Zm8.827 7.452c-.272 0-.504-.056-.696-.168a1.428 1.428 0 0 1-.468-.432 2.157 2.157 0 0 1-.252-.636 3.785 3.785 0 0 1 0-1.476c.048-.24.128-.452.24-.636.12-.184.272-.332.456-.444.192-.12.428-.18.708-.18.272 0 .5.06.684.18.192.112.348.264.468.456.12.184.204.396.252.636.056.24.084.484.084.732s-.024.492-.072.732c-.048.24-.132.452-.252.636-.112.176-.264.32-.456.432-.184.112-.416.168-.696.168Zm-3.132-5.088v8.376h1.704v-2.94h.024c.208.304.472.536.792.696.328.152.684.228 1.068.228.456 0 .852-.088 1.188-.264.344-.176.628-.412.852-.708.232-.296.404-.636.516-1.02.112-.384.168-.784.168-1.2 0-.44-.056-.86-.168-1.26a3.086 3.086 0 0 0-.516-1.068 2.601 2.601 0 0 0-.876-.732c-.352-.184-.772-.276-1.26-.276a2.43 2.43 0 0 0-1.056.228c-.32.152-.584.396-.792.732h-.024v-.792h-1.62Zm10.467 5.088c-.272 0-.504-.056-.696-.168a1.428 1.428 0 0 1-.468-.432 2.157 2.157 0 0 1-.252-.636 3.785 3.785 0 0 1 0-1.476c.048-.24.128-.452.24-.636.12-.184.272-.332.456-.444.192-.12.428-.18.708-.18.272 0 .5.06.684.18.192.112.348.264.468.456.12.184.204.396.252.636.056.24.084.484.084.732s-.024.492-.072.732c-.048.24-.132.452-.252.636-.112.176-.264.32-.456.432-.184.112-.416.168-.696.168Zm-3.132-5.088v8.376h1.704v-2.94h.024c.208.304.472.536.792.696.328.152.684.228 1.068.228.456 0 .852-.088 1.188-.264.344-.176.628-.412.852-.708.232-.296.404-.636.516-1.02.112-.384.168-.784.168-1.2 0-.44-.056-.86-.168-1.26a3.086 3.086 0 0 0-.516-1.068 2.601 2.601 0 0 0-.876-.732c-.352-.184-.772-.276-1.26-.276a2.43 2.43 0 0 0-1.056.228c-.32.152-.584.396-.792.732h-.024v-.792h-1.62Z" fill="#fff"/></svg>