<?xml version="1.0" encoding="utf-8"?>
<!-- Generator: Adobe Illustrator 27.7.0, SVG Export Plug-In . SVG Version: 6.00 Build 0)  -->
<svg version="1.1" id="Layer_1" xmlns="http://www.w3.org/2000/svg" xmlns:xlink="http://www.w3.org/1999/xlink" x="0px" y="0px"
	 viewBox="0 0 160 80" style="enable-background:new 0 0 160 80;" xml:space="preserve">
<path d="M25.23,57.56l-2.69,7.39H-0.11v-1.05c6.66-6.08,11.36-11.04,14.08-14.9s4.08-7.37,4.08-10.56c0-2.44-0.75-4.44-2.24-6
	c-1.49-1.57-3.28-2.35-5.35-2.35c-1.89,0-3.58,0.55-5.08,1.66s-2.61,2.72-3.33,4.86H0.99c0.47-3.49,1.69-6.17,3.64-8.04
	s4.39-2.8,7.32-2.8c3.12,0,5.72,1,7.8,3c2.09,2,3.13,4.36,3.13,7.08c0,1.94-0.45,3.89-1.36,5.83c-1.4,3.06-3.66,6.3-6.8,9.71
	c-4.7,5.14-7.64,8.23-8.81,9.29h10.03c2.04,0,3.47-0.08,4.29-0.23c0.82-0.15,1.56-0.46,2.22-0.92c0.66-0.46,1.24-1.12,1.73-1.97
	H25.23z"/>
<path d="M27.44,30.32l9.35-4.56h0.93v32.43c0,2.15,0.09,3.49,0.27,4.02c0.18,0.53,0.55,0.93,1.12,1.22s1.72,0.44,3.46,0.48v1.05
	H28.12v-1.05c1.81-0.04,2.98-0.19,3.51-0.47c0.53-0.27,0.9-0.64,1.1-1.1c0.21-0.46,0.31-1.85,0.31-4.15V37.46
	c0-2.79-0.09-4.59-0.28-5.38c-0.13-0.6-0.37-1.05-0.72-1.33c-0.35-0.28-0.77-0.42-1.26-0.42c-0.7,0-1.67,0.29-2.92,0.88L27.44,30.32
	z"/>
<path d="M60.39,43.74c3.04-3.66,5.94-5.49,8.69-5.49c1.42,0,2.63,0.35,3.65,1.06s1.83,1.87,2.44,3.5c0.42,1.13,0.62,2.87,0.62,5.21
	v11.07c0,1.64,0.13,2.76,0.4,3.34c0.21,0.47,0.54,0.84,1.01,1.1c0.46,0.26,1.32,0.4,2.56,0.4v1.02H66.94v-1.02h0.54
	c1.21,0,2.05-0.18,2.53-0.55s0.82-0.91,1.01-1.63c0.08-0.28,0.11-1.17,0.11-2.66V48.47c0-2.36-0.31-4.07-0.92-5.14
	c-0.61-1.07-1.65-1.6-3.1-1.6c-2.25,0-4.48,1.23-6.71,3.68v13.68c0,1.76,0.1,2.84,0.31,3.26c0.26,0.55,0.63,0.95,1.09,1.2
	c0.46,0.25,1.4,0.38,2.82,0.38v1.02H51.78v-1.02h0.57c1.32,0,2.21-0.33,2.68-1.01c0.46-0.67,0.69-1.95,0.69-3.84v-9.63
	c0-3.12-0.07-5.01-0.21-5.69s-0.36-1.14-0.65-1.39c-0.29-0.25-0.68-0.37-1.18-0.37c-0.53,0-1.16,0.14-1.9,0.42l-0.42-1.02l7.82-3.17
	h1.22V43.74z"/>
<path d="M89.44,30.32l9.35-4.56h0.93v32.43c0,2.15,0.09,3.49,0.27,4.02c0.18,0.53,0.55,0.93,1.12,1.22s1.72,0.44,3.46,0.48v1.05
	H90.12v-1.05c1.81-0.04,2.98-0.19,3.51-0.47c0.53-0.27,0.9-0.64,1.1-1.1c0.21-0.46,0.31-1.85,0.31-4.15V37.46
	c0-2.79-0.09-4.59-0.28-5.38c-0.13-0.6-0.37-1.05-0.72-1.33c-0.35-0.28-0.77-0.42-1.26-0.42c-0.7,0-1.67,0.29-2.92,0.88L89.44,30.32
	z"/>
<path d="M106.74,45.98c0-4.38,0.66-8.15,1.98-11.31c1.32-3.16,3.08-5.52,5.27-7.07c1.7-1.23,3.46-1.84,5.27-1.84
	c2.95,0,5.59,1.5,7.93,4.5c2.93,3.72,4.39,8.76,4.39,15.12c0,4.46-0.64,8.24-1.93,11.36c-1.28,3.12-2.92,5.38-4.91,6.78
	c-1.99,1.41-3.91,2.11-5.76,2.11c-3.66,0-6.71-2.16-9.15-6.49C107.76,55.51,106.74,51.12,106.74,45.98z M112.29,46.69
	c0,5.29,0.65,9.6,1.95,12.94c1.08,2.81,2.68,4.22,4.81,4.22c1.02,0,2.08-0.46,3.17-1.37c1.09-0.92,1.93-2.45,2.49-4.6
	c0.87-3.25,1.3-7.83,1.3-13.74c0-4.38-0.45-8.03-1.36-10.96c-0.68-2.17-1.56-3.71-2.63-4.62c-0.77-0.62-1.71-0.93-2.8-0.93
	c-1.28,0-2.43,0.58-3.43,1.73c-1.36,1.57-2.28,4.03-2.78,7.39C112.53,40.11,112.29,43.42,112.29,46.69z"/>
<path d="M30.06,18.56"/>
<path d="M27.44,25.76"/>
<polygon points="27.44,26.84 65.56,8.32 94.35,25.76 99.24,23.36 65.56,6.37 27.44,25.76 "/>
<g>
</g>
<g>
</g>
<g>
</g>
<g>
</g>
<g>
</g>
<g>
</g>
<g>
</g>
</svg>
